<?xml version="1.0" encoding="UTF-8"?>
<svg version="1.1" xmlns="http://www.w3.org/2000/svg" width="1563" height="1563">
<path d="M0 0 C515.79 0 1031.58 0 1563 0 C1563 515.79 1563 1031.58 1563 1563 C1047.21 1563 531.42 1563 0 1563 C0 1047.21 0 531.42 0 0 Z " fill="#FDFDFD" transform="translate(0,0)"/>
<path d="M0 0 C0.82388214 -0.0065712 1.64776428 -0.0131424 2.49661255 -0.01991272 C5.20615761 -0.0395173 7.91564742 -0.05128295 10.62524414 -0.0612793 C11.55868715 -0.06535482 12.49213017 -0.06943035 13.45385933 -0.07362938 C18.40006407 -0.09444105 23.34624152 -0.1087608 28.29248047 -0.11816406 C33.35895688 -0.12918518 38.42498891 -0.16354945 43.49130917 -0.20333576 C47.4234133 -0.22969508 51.35541488 -0.23787314 55.28759956 -0.24144554 C57.15280706 -0.24626608 59.01801141 -0.25774755 60.88313103 -0.27648354 C79.9040159 -0.45559999 97.76749566 1.96271316 112.14868164 15.59887695 C132.69726933 38.39226834 128.93232589 73.89869188 128.79547119 102.33685303 C128.78200275 106.1351977 128.78722218 109.93342349 128.79259968 113.73178101 C128.79596148 117.43128211 128.78927032 121.13071257 128.77947044 124.8302002 C128.77566617 126.5778364 128.77445 128.32548051 128.77605629 130.07312012 C128.77758155 139.98047917 128.30386329 149.40324107 126.47290039 159.17700195 C126.27748484 160.50565869 126.08656071 161.83499377 125.90258789 163.1652832 C123.47981604 177.68485253 117.43535549 191.07513394 105.47290039 200.17700195 C91.17151541 209.26555149 76.54514375 209.63246452 60.16040039 209.57543945 C58.09879453 209.57746467 56.03718937 209.58037982 53.97558594 209.58413696 C49.67221195 209.58853922 45.36902583 209.5821972 41.06567383 209.56811523 C35.57861879 209.55102477 30.09200414 209.56087725 24.60496521 209.57883263 C20.35303492 209.58972737 16.10120724 209.58619812 11.84927368 209.57844925 C9.82728014 209.57646294 7.80527695 209.57885065 5.78329468 209.58588791 C-12.69831173 209.63611124 -28.29319409 207.89831362 -42.27319336 194.6184082 C-45.80007502 190.79812911 -48.25733317 186.83922492 -50.52709961 182.17700195 C-50.96666992 181.3159082 -51.40624023 180.45481445 -51.85913086 179.56762695 C-61.900645 157.11832042 -60.10674571 130.24941957 -59.91833496 106.22479248 C-59.89658872 102.72847178 -59.89740227 99.23230713 -59.89861107 95.73593044 C-59.89806174 92.30648061 -59.88700937 88.87712732 -59.87260818 85.44771004 C-59.86635904 83.84014673 -59.8623301 82.23257283 -59.86082077 80.62499809 C-59.81688331 58.34091361 -58.51585758 32.98544099 -43.10131836 15.41137695 C-30.82425669 3.87895822 -16.57651927 0.05840153 0 0 Z " fill="#024BAD" transform="translate(1365.527099609375,553.822998046875)"/>
<path d="M0 0 C0.67434586 -0.00619858 1.34869171 -0.01239716 2.04347229 -0.01878357 C3.46817584 -0.02587954 4.89296235 -0.02271132 6.31762695 -0.01000977 C8.49390988 0.00384262 10.66587844 -0.03018537 12.84179688 -0.06835938 C14.22786563 -0.06931079 15.61393976 -0.06745055 17 -0.0625 C18.25868896 -0.0632251 19.51737793 -0.0639502 20.81420898 -0.06469727 C24.06640625 0.56640625 24.06640625 0.56640625 26.23933506 2.72173119 C28.37686517 6.04977808 28.56200907 7.78953777 28.55174255 11.71231079 C28.55842957 12.94858215 28.56511658 14.18485352 28.57200623 15.45858765 C28.5593198 16.82086492 28.54629263 18.18313906 28.53295898 19.54541016 C28.53350798 20.98641128 28.53588429 22.4274127 28.53994751 23.8684082 C28.54512004 26.96834843 28.53806272 30.06793473 28.52169609 33.16783524 C28.49654276 38.07768321 28.5028723 42.98718319 28.51417542 47.89706421 C28.53736303 60.09653552 28.51901797 72.2959067 28.49267578 84.49536133 C28.47268826 93.96963628 28.46423508 103.44363158 28.48961216 112.91790712 C28.5013759 117.78987326 28.4898916 122.66104134 28.46035945 127.53292394 C28.44701634 130.57747842 28.4545813 133.62173026 28.46763992 136.66627502 C28.46948211 138.06782473 28.46290857 139.46941755 28.44683647 140.87087631 C28.35821742 149.05166244 29.12987911 155.20072061 32.99360752 162.48358727 C34.06640625 164.56640625 34.06640625 164.56640625 34.06640625 166.56640625 C39.74522133 169.51097703 43.99331826 170.81930363 50.48364258 170.85693359 C51.21279373 170.86365082 51.94194489 170.87036804 52.69319153 170.87728882 C55.09501022 170.89622961 57.49654884 170.90019115 59.8984375 170.90234375 C61.57606621 170.90877498 63.25369381 170.91550358 64.93132019 170.92251587 C68.44585773 170.93447924 71.96029706 170.93819772 75.47485352 170.93701172 C79.96379969 170.93680871 84.45211147 170.96409561 88.94090748 170.99855614 C92.40605015 171.02086791 95.87104126 171.02484794 99.3362484 171.02379227 C100.99035513 171.02614237 102.64446642 171.03493248 104.29850197 171.050457 C117.59855966 171.35187183 117.59855966 171.35187183 128.87890625 164.87890625 C134.17008029 154.57504101 134.21500623 144.13629302 134.22412109 132.80004883 C134.22879556 131.40650779 134.23394016 130.01296826 134.23951721 128.61943054 C134.25075029 125.62986712 134.25920707 122.64031339 134.26563644 119.65073586 C134.27635701 114.9233445 134.29660934 110.19602363 134.3187561 105.46867371 C134.38055474 92.03001104 134.43476157 78.5913545 134.46777344 65.15258789 C134.48610616 57.72190498 134.5150163 50.29134217 134.55577815 42.86074752 C134.57685392 38.93153132 134.59230638 35.00246639 134.59458542 31.07319069 C134.59672937 27.38191913 134.6125723 23.69096362 134.63897514 19.99978828 C134.64961213 17.99916479 134.64541054 15.99847969 134.64079285 13.99783325 C134.65743233 12.21254463 134.65743233 12.21254463 134.67440796 10.39118958 C134.67771811 9.35681165 134.68102825 8.32243372 134.68443871 7.25671101 C135.12501789 4.15358802 135.85785081 2.76920239 138.06640625 0.56640625 C141.20507812 0.06469727 141.20507812 0.06469727 145.03515625 0.0703125 C146.05023254 0.06812965 146.05023254 0.06812965 147.08581543 0.06590271 C148.51477367 0.0675607 149.94374994 0.07911119 151.37255859 0.09985352 C153.55904023 0.1288087 155.74309667 0.12046366 157.9296875 0.10742188 C159.31902219 0.11365966 160.70834923 0.12205093 162.09765625 0.1328125 C163.99354492 0.1474353 163.99354492 0.1474353 165.92773438 0.16235352 C169.06640625 0.56640625 169.06640625 0.56640625 170.73876381 1.71713638 C172.63851428 4.36329411 172.44399833 6.31811246 172.44735718 9.55877686 C172.45581665 10.81176071 172.46427612 12.06474457 172.47299194 13.35569763 C172.46715844 14.74722419 172.46101389 16.13874948 172.45458984 17.53027344 C172.45865472 18.99404797 172.46399613 20.45781944 172.47052002 21.92158508 C172.484224 25.90376871 172.47887855 29.8857197 172.46938276 33.86790752 C172.46178486 38.04494031 172.46883374 42.22195324 172.47354126 46.39898682 C172.47900569 53.42699751 172.47179679 60.4549138 172.45751953 67.48291016 C172.4412678 75.57557852 172.44642395 83.66801924 172.46299875 91.76068187 C172.47668545 98.72484539 172.47849615 105.68894095 172.47068274 112.6531136 C172.46603561 116.8046358 172.46529731 120.95605172 172.47529221 125.10756683 C172.48406182 129.02450165 172.477761 132.94114893 172.46060944 136.85805321 C172.45669393 138.28370121 172.45769207 139.70937406 172.46439743 141.13501167 C172.54350279 159.68841329 169.04072859 180.56122779 156.0703125 194.75 C141.2828186 208.69400049 124.46790202 210.04399193 105.14453125 210.03515625 C103.2308531 210.04227757 101.31717704 210.04997936 99.40350342 210.05822754 C95.40956679 210.07160112 91.4158276 210.07327377 87.421875 210.06738281 C82.35100351 210.06149848 77.2810933 210.09205981 72.21040726 210.13249969 C68.26193303 210.15858825 64.31368369 210.16123503 60.36513519 210.15760803 C58.49796895 210.15928007 56.63079007 210.16873337 54.76371002 210.18675232 C38.51909253 210.32628767 21.96277001 208.54430267 9.06640625 197.56640625 C-11.3143613 176.41390568 -10.40430884 148.52311845 -10.33657026 121.08892989 C-10.32888959 116.99892202 -10.33604055 112.90893277 -10.34072876 108.81892395 C-10.34615411 101.96965849 -10.33907163 95.12049079 -10.32470703 88.27124023 C-10.30830161 80.35755965 -10.31373876 72.44411003 -10.33018625 64.53043479 C-10.34379237 57.70968371 -10.34572763 50.88900215 -10.33787024 44.06824189 C-10.33319978 40.00502718 -10.33255333 35.94192128 -10.34247971 31.87871361 C-10.35113737 28.07078606 -10.34514989 24.26315826 -10.32779694 20.45526314 C-10.32382928 19.05884677 -10.32497095 17.66240518 -10.33158493 16.26599884 C-10.33977641 14.36123554 -10.32768505 12.4564171 -10.31454468 10.55168152 C-10.3134136 9.48604571 -10.31228252 8.42040991 -10.31111717 7.32248211 C-9.40698338 0.72193452 -6.1264006 0.05298636 0 0 Z " fill="#024BAD" transform="translate(844.93359375,553.43359375)"/>
<path d="M0 0 C16.73148102 10.00634764 21.49579271 29.72356781 28.34765625 46.87890625 C29.28802689 49.2223063 30.22895064 51.56548446 31.17041016 53.90844727 C33.0493203 58.58531812 34.92611795 63.26302724 36.80126953 67.94140625 C39.97601956 75.85741095 43.17685401 83.76272109 46.38601685 91.66482544 C47.5855064 94.6185018 48.78370632 97.57270069 49.98197937 100.52687073 C50.86511461 102.70400998 51.74845717 104.88106502 52.63183594 107.05810547 C54.46763018 111.58267005 56.30230524 116.10768797 58.13671875 120.6328125 C58.44798203 121.40063553 58.7592453 122.16845856 59.0799408 122.95954895 C60.33340129 126.05164503 61.58682128 129.14375754 62.84024048 132.23587036 C66.04355676 140.13818565 69.24720445 148.04036558 72.45291138 155.94171143 C73.80212432 159.26730029 75.15107137 162.59299698 76.5 165.91870117 C77.13512203 167.48434712 77.77037029 169.04994187 78.40576172 170.61547852 C78.70498535 171.3527417 79.00420898 172.09000488 79.3125 172.84960938 C79.60583221 173.57218933 79.89916443 174.29476929 80.2013855 175.03924561 C80.77456106 176.45373492 81.34630944 177.8688035 81.91653442 179.28448486 C83.31043437 182.74436826 84.72297559 186.19406665 86.17529297 189.62988281 C86.45610214 190.30439484 86.73691132 190.97890686 87.02622986 191.67385864 C87.79130551 193.5107999 88.56607695 195.34369449 89.34155273 197.17626953 C90.44632467 200.5519195 90.85346717 202.92167312 90.41015625 206.44140625 C89.38671875 208.29150391 89.38671875 208.29150391 87.41015625 209.44140625 C84.78762167 209.73959203 82.40721659 209.86199549 79.78515625 209.83984375 C78.67019775 209.84414902 78.67019775 209.84414902 77.53271484 209.84854126 C75.96255735 209.85058101 74.39237439 209.84505725 72.82226562 209.83251953 C70.41869293 209.81646328 68.01680164 209.83236977 65.61328125 209.8515625 C64.08723587 209.84958005 62.56119154 209.84573634 61.03515625 209.83984375 C60.31634277 209.84591644 59.5975293 209.85198914 58.85693359 209.85824585 C53.85067776 209.78767063 53.85067776 209.78767063 51.81925011 208.19090176 C50.22719664 206.21424819 49.38424935 204.42117141 48.45059204 202.06129456 C48.09188522 201.16578384 47.73317841 200.27027313 47.36360168 199.34762573 C46.98016098 198.36738434 46.59672028 197.38714294 46.20166016 196.37719727 C45.78985001 195.34264908 45.37803986 194.30810089 44.95375061 193.24220276 C43.59072385 189.81277129 42.23875966 186.37908827 40.88671875 182.9453125 C39.93962306 180.55667979 38.99180799 178.1683322 38.04330444 175.78025818 C35.79830582 170.12324914 33.56012381 164.46358862 31.32535684 158.80253118 C28.06099267 150.53440171 24.78441761 142.27111233 21.5085659 134.00752926 C19.15480962 128.06956548 16.80269077 122.1309719 14.45571899 116.19032288 C14.02020218 115.08899017 13.58468536 113.98765747 13.13597107 112.85295105 C12.33235537 110.82063025 11.52953959 108.78799285 10.72776794 106.75494385 C7.30211208 98.09656633 3.82752123 89.45821512 -0.0703125 81 C-2.86539755 74.90769915 -5.40242952 68.72221143 -7.90234375 62.50390625 C-8.35673828 61.39466797 -8.81113281 60.28542969 -9.27929688 59.14257812 C-9.70791016 58.07716797 -10.13652344 57.01175781 -10.578125 55.9140625 C-10.96524658 54.95765869 -11.35236816 54.00125488 -11.7512207 53.01586914 C-12.58984375 50.44140625 -12.58984375 50.44140625 -12.58984375 46.44140625 C-13.24984375 46.44140625 -13.90984375 46.44140625 -14.58984375 46.44140625 C-14.70231445 47.2919458 -14.81478516 48.14248535 -14.93066406 49.01879883 C-15.63118517 52.65606007 -16.75265765 55.76907305 -18.13671875 59.203125 C-18.51633759 60.15007988 -18.51633759 60.15007988 -18.90362549 61.11616516 C-19.43876109 62.44765111 -19.97679774 63.7779744 -20.51757812 65.10717773 C-21.32946402 67.1033853 -22.13231422 69.10303049 -22.93359375 71.10351562 C-25.25048872 76.86095491 -27.61662983 82.57997594 -30.23046875 88.2109375 C-32.68031492 93.5145101 -34.66001861 98.9310237 -36.58984375 104.44140625 C-39.02574396 111.28068666 -41.52106156 117.97352178 -44.6796875 124.515625 C-45.70278718 126.5811276 -45.70278718 126.5811276 -46.58984375 129.44140625 C-45.58606689 129.41522217 -44.58229004 129.38903809 -43.5480957 129.36206055 C-39.81167023 129.27132457 -36.0753414 129.21407363 -32.33813477 129.16674805 C-30.72305914 129.14165666 -29.10809649 129.10757499 -27.4934082 129.06420898 C-25.16719669 129.00331339 -22.84249016 128.97514501 -20.515625 128.953125 C-19.4387719 128.91441536 -19.4387719 128.91441536 -18.34016418 128.87492371 C-14.53195037 128.87280974 -12.78333917 129.29076574 -9.74804688 131.65380859 C-7.72590396 134.26566694 -6.37846759 136.48761836 -5.1328125 139.53125 C-4.74287109 140.48064453 -4.35292969 141.43003906 -3.95117188 142.40820312 C-3.56380859 143.38853516 -3.17644531 144.36886719 -2.77734375 145.37890625 C-2.37064453 146.35537109 -1.96394531 147.33183594 -1.54492188 148.33789062 C2.16028157 157.52305882 2.16028157 157.52305882 1.41015625 162.44140625 C-0.38978149 165.14131287 -1.67361675 166.98329275 -4.58984375 168.44140625 C-6.43841455 168.53242237 -8.29030754 168.55893771 -10.14111328 168.55493164 C-11.30216583 168.55485611 -12.46321838 168.55478058 -13.65945435 168.55470276 C-14.91781097 168.54954147 -16.1761676 168.54438019 -17.47265625 168.5390625 C-18.75719696 168.53764755 -20.04173767 168.5362326 -21.36520386 168.53477478 C-24.78141217 168.53095536 -28.19757801 168.52112998 -31.61376953 168.5100708 C-35.09927801 168.49984432 -38.58479335 168.49527451 -42.0703125 168.49023438 C-48.9101737 168.47950721 -55.75000669 168.46243767 -62.58984375 168.44140625 C-62.73076447 169.03687759 -62.87168518 169.63234894 -63.01687622 170.24586487 C-64.36466262 175.41041726 -66.64357931 180.33439748 -68.62744141 185.28588867 C-69.45981959 187.36634877 -70.28480932 189.4496364 -71.109375 191.53320312 C-71.64147794 192.86606481 -72.17401589 194.19875293 -72.70703125 195.53125 C-73.42802002 197.33903931 -73.42802002 197.33903931 -74.16357422 199.18334961 C-75.87465441 203.09200505 -77.56349944 206.41506194 -80.58984375 209.44140625 C-83.21924571 209.64105998 -85.74104538 209.72124735 -88.37109375 209.70703125 C-89.14038208 209.7089447 -89.90967041 209.71085815 -90.70227051 209.71282959 C-92.32967455 209.71419133 -93.95708945 209.71049564 -95.58447266 209.70214844 C-98.08000006 209.69144846 -100.57480757 209.70204376 -103.0703125 209.71484375 C-104.64974118 209.71352215 -106.22916941 209.71095975 -107.80859375 209.70703125 C-108.55757935 209.71107971 -109.30656494 209.71512817 -110.07824707 209.71929932 C-115.35992132 209.67132868 -115.35992132 209.67132868 -117.58984375 207.44140625 C-118.30003826 200.56383445 -116.45596324 195.53176429 -113.828125 189.23828125 C-113.44045456 188.27923889 -113.05278412 187.32019653 -112.65336609 186.33209229 C-111.41593665 183.2797529 -110.15948518 180.23567232 -108.90234375 177.19140625 C-108.07621467 175.1619705 -107.25133296 173.13202651 -106.42773438 171.1015625 C-103.36371247 163.56463676 -100.26115541 156.04447409 -97.12133789 148.53881836 C-94.57481867 142.43205661 -92.10909923 136.29486944 -89.66015625 130.1484375 C-88.7012099 127.74640409 -87.74222377 125.34438656 -86.78320312 122.94238281 C-86.27822865 121.6768026 -85.7732646 120.41121824 -85.26831055 119.14562988 C-83.69064715 115.1923116 -82.11032571 111.24005933 -80.52929688 107.28808594 C-80.26147022 106.61862001 -79.99364357 105.94915409 -79.71770096 105.25940132 C-78.89647734 103.20677186 -78.07520153 101.15416329 -77.25390625 99.1015625 C-73.94859588 90.84083695 -70.64430782 82.57971371 -67.34667969 74.31591797 C-65.00942426 68.45908428 -62.66699797 62.6043468 -60.31871986 56.75192356 C-59.09353839 53.69805108 -57.87142248 50.64301354 -56.65386963 47.58609009 C-47.99090723 25.84254186 -47.99090723 25.84254186 -43.18359375 16.09765625 C-42.72188782 15.15391144 -42.72188782 15.15391144 -42.25085449 14.19110107 C-34.51841874 -0.93367908 -15.37174286 -7.17348 0 0 Z " fill="#024BAD" transform="translate(690.58984375,553.55859375)"/>
<path d="M0 0 C0.71873795 -0.00287018 1.43747589 -0.00574036 2.17799377 -0.00869751 C3.69687692 -0.01073726 5.21578638 -0.00521351 6.73461914 0.00732422 C9.05480013 0.0233573 11.37323311 0.00748637 13.69335938 -0.01171875 C15.17057675 -0.00973584 16.64779304 -0.00589117 18.125 0 C18.81677841 -0.00607269 19.50855682 -0.01214539 20.22129822 -0.0184021 C24.42239989 0.04265164 26.53191193 0.59117319 29.62890625 3.3984375 C30.72547913 5.2824707 30.72547913 5.2824707 31.58227539 7.44921875 C31.91626343 8.27630341 32.25025146 9.10338806 32.59436035 9.95553589 C32.94736206 10.86481842 33.30036377 11.77410095 33.6640625 12.7109375 C34.24516785 14.16392746 34.24516785 14.16392746 34.8380127 15.64627075 C36.13356276 18.89270041 37.41223709 22.14552236 38.69140625 25.3984375 C39.6008552 27.68524133 40.5116102 29.97152612 41.42358398 32.25732422 C42.89190208 35.93950049 44.35933135 39.62200929 45.82093811 43.30685425 C49.80646177 53.35368598 53.83410636 63.38314683 57.87890625 73.40625 C58.18332579 74.16068138 58.48774532 74.91511276 58.80138969 75.6924057 C60.02484265 78.72420446 61.24848155 81.75592805 62.47243404 84.78752518 C65.4074045 92.05714722 68.33805525 99.32850627 71.26731873 106.60042953 C72.04325315 108.52657893 72.81939953 110.4526428 73.59558105 112.37869263 C75.69367336 117.58646066 77.79059965 122.79469778 79.88085938 128.00561523 C80.18423218 128.76172592 80.48760498 129.51783661 80.8001709 130.29685974 C82.11167455 133.6226825 83.3371448 136.97907543 84.56640625 140.3359375 C86.68716295 146.09208252 89.02723542 151.65794689 91.74609375 157.1640625 C92.62890625 159.3984375 92.62890625 159.3984375 92.62890625 163.3984375 C93.28890625 163.3984375 93.94890625 163.3984375 94.62890625 163.3984375 C94.72171875 162.25375 94.72171875 162.25375 94.81640625 161.0859375 C95.72951795 156.94181517 97.31747584 153.57718969 99.1262207 149.75708008 C100.6981668 146.2436337 102.06674639 142.68171385 103.390625 139.0703125 C106.56568138 130.50935793 109.89535945 122.01374987 113.25390625 113.5234375 C113.81912912 112.09119267 114.38423351 110.65890108 114.94921875 109.2265625 C117.1359787 103.68564502 119.32525354 98.14580687 121.54296875 92.6171875 C123.77611676 87.04648563 125.97596921 81.4626851 128.17875671 75.87992859 C129.99251848 71.283442 131.80809097 66.68768699 133.62768555 62.09350586 C134.00677567 61.13636185 134.38586578 60.17921783 134.77644348 59.19306946 C135.55388964 57.23023017 136.33138642 55.26741092 137.1089325 53.30461121 C139.4352104 47.42797668 141.74830155 41.54636998 144.05038452 35.66021729 C145.49503046 31.97126938 146.94801226 28.285641 148.40270996 24.60064697 C149.09190815 22.84914078 149.77741233 21.09617627 150.45910645 19.34173584 C151.40850192 16.89972322 152.37068538 14.46312379 153.3359375 12.02734375 C153.61131851 11.30951218 153.88669952 10.5916806 154.17042542 9.85209656 C155.74333293 5.92657735 157.08807968 2.81201615 160.62890625 0.3984375 C163.34421881 0.02446892 165.64366147 -0.11702983 168.3515625 -0.0625 C169.09345322 -0.06158356 169.83534393 -0.06066711 170.59971619 -0.0597229 C172.16395488 -0.05369461 173.72818244 -0.03797152 175.29223633 -0.01318359 C177.68679289 0.02336708 180.07980272 0.02783535 182.47460938 0.02734375 C183.99610712 0.03717401 185.5175944 0.04883062 187.0390625 0.0625 C188.11257713 0.06583847 188.11257713 0.06583847 189.20777893 0.06924438 C192.88580701 0.13954514 194.48677291 0.30368194 197.62890625 2.3984375 C198.47437612 8.59589118 196.39585962 13.27426914 194.00390625 18.8359375 C193.26537298 20.61133348 192.52841337 22.38738484 191.79296875 24.1640625 C191.4259082 25.04384766 191.05884766 25.92363281 190.68066406 26.83007812 C188.66853833 31.74362564 186.87191233 36.73597085 185.05078125 41.72265625 C184.02135011 44.38390544 182.94927541 46.95522735 181.77574158 49.55036926 C179.69589361 54.20703702 177.75856139 58.91125099 175.85766602 63.64331055 C175.50423126 64.51946518 175.15079651 65.39561981 174.78665161 66.29832458 C173.62951358 69.1682569 172.47478373 72.03915024 171.3203125 74.91015625 C170.50852202 76.92644263 169.69666687 78.94270296 168.88475037 80.9589386 C167.1866038 85.17716875 165.48974396 89.3959138 163.79370117 93.61499023 C161.63377206 98.98752991 159.46988679 104.35846606 157.30491734 109.72897625 C155.62745298 113.8918336 153.9525181 118.05570531 152.27827263 122.21985817 C151.48223474 124.19868262 150.68534578 126.17716495 149.88754463 128.15527916 C145.97197474 137.86681212 142.10098946 147.56638574 138.6761322 157.46394348 C136.08782738 164.7167861 132.97271393 171.78481107 129.77734375 178.7890625 C128.84278441 180.91248305 127.96553371 183.04146562 127.10546875 185.1953125 C122.57979244 196.34057612 117.7754654 204.79014787 106.70703125 210.5234375 C99.49068439 213.56189934 90.07850076 213.79654999 82.6328125 211.45703125 C70.82510284 205.72391195 65.87020764 197.61993635 61.19140625 185.7734375 C60.44315395 183.90607138 59.69445343 182.0388848 58.9453125 180.171875 C58.56576416 179.22054687 58.18621582 178.26921875 57.79516602 177.2890625 C56.64012089 174.42623347 55.45147033 171.57964965 54.25390625 168.734375 C52.24956621 163.94366482 50.32639444 159.12605363 48.4375 154.2890625 C48.16245132 153.58524445 47.88740265 152.88142639 47.60401917 152.15628052 C46.4702785 149.25244034 45.33789189 146.34809167 44.21020508 143.44189453 C41.29317526 135.93093944 38.32055355 128.56984947 34.62890625 121.3984375 C33.67440907 118.99646109 32.75804818 116.57900637 31.87890625 114.1484375 C29.54009406 107.77416255 27.09261404 101.4508121 24.56640625 95.1484375 C24.25026367 94.35791992 23.93412109 93.56740234 23.60839844 92.75292969 C21.87915306 88.44843889 20.11425864 84.16074042 18.3203125 79.8828125 C14.67787348 71.1643194 11.20847489 62.37623488 7.71289062 53.59814453 C4.44322194 45.39071603 1.15187921 37.19668249 -2.26318359 29.04833984 C-3.94153484 25.03405505 -5.57808049 21.00484616 -7.18359375 16.9609375 C-7.49490234 16.19845703 -7.80621094 15.43597656 -8.12695312 14.65039062 C-11.05976479 7.23134398 -11.05976479 7.23134398 -10.37109375 3.3984375 C-7.80915017 -0.4791782 -4.22410175 -0.03697258 0 0 Z " fill="#024BAD" transform="translate(85.37109375,550.6015625)"/>
<path d="M0 0 C0.72769089 -0.0049649 1.45538177 -0.00992981 2.2051239 -0.01504517 C4.59663868 -0.02957051 6.98808715 -0.03645239 9.37963867 -0.04199219 C10.6122471 -0.04623325 10.6122471 -0.04623325 11.8697567 -0.05056 C16.21786187 -0.06551319 20.56593418 -0.07476724 24.9140625 -0.07910156 C29.38593834 -0.08458242 33.85750913 -0.10861336 38.32928944 -0.13707352 C41.78587196 -0.15577318 45.24238203 -0.16090937 48.69901085 -0.16243744 C50.34670365 -0.16544764 51.99439568 -0.17342047 53.64203835 -0.18662262 C73.34701699 -0.33325467 73.34701699 -0.33325467 80.29760742 5.53613281 C87.88548938 16.33875336 87.06318836 29.98217195 86.98120117 42.51269531 C86.98135652 44.46316583 86.98285136 46.41363665 86.98561096 48.36410522 C86.98698745 52.43037748 86.97456124 56.49629379 86.95166016 60.5625 C86.92324002 65.74810449 86.9260334 70.93312037 86.93875027 76.11876869 C86.94573699 80.13905783 86.93788472 84.15921327 86.92549324 88.17948532 C86.92101047 90.09065613 86.92061384 92.00184146 86.92455864 93.91301346 C86.95223869 119.1100646 86.95223869 119.1100646 79.48510742 128.16113281 C74.44660766 132.86373259 68.40542884 133.45943377 61.77075195 133.43579102 C61.02194763 133.44090195 60.27314331 133.44601288 59.50164795 133.45127869 C57.04032266 133.46511362 54.57927934 133.46422242 52.11791992 133.46191406 C50.39688006 133.4658046 48.67584115 133.47014001 46.95480347 133.47489929 C43.35208012 133.48234858 39.74945479 133.48207979 36.14672852 133.47680664 C31.54469475 133.47101651 26.94306405 133.48793814 22.34109688 133.51115131 C18.78760457 133.52593052 15.23420837 133.52675462 11.68069077 133.52364159 C9.98473183 133.52415279 8.28876722 133.52935251 6.59283829 133.53945351 C4.21438158 133.55188104 1.8366976 133.54498895 -0.54174805 133.53344727 C-1.23291718 133.541091 -1.9240863 133.54873474 -2.63619995 133.55661011 C-9.21532309 133.48654345 -14.56489217 132.02446653 -19.32739258 127.47363281 C-25.21927238 118.5516434 -25.66663789 109.09830749 -25.66015625 98.66308594 C-25.66351486 97.86668198 -25.66687347 97.07027802 -25.67033386 96.2497406 C-25.67974361 93.64727165 -25.68178159 91.04486766 -25.68286133 88.44238281 C-25.68607974 86.61592585 -25.68944424 84.78946914 -25.69294739 82.9630127 C-25.69891289 79.14704796 -25.70078984 75.33110579 -25.70019531 71.51513672 C-25.70009358 66.64322263 -25.71376857 61.77145391 -25.73096752 56.89957428 C-25.7421218 53.13160546 -25.7441135 49.3636715 -25.74358559 45.59568787 C-25.74475965 43.80007932 -25.74914897 42.00446969 -25.75691795 40.20887756 C-25.76679195 37.69220955 -25.76381136 35.17585347 -25.7578125 32.65917969 C-25.76343201 31.92956528 -25.76905151 31.19995087 -25.77484131 30.44822693 C-25.72609575 22.33955178 -24.4230672 11.72397628 -18.97583008 5.36425781 C-13.23171612 0.05031979 -7.6728835 0.04000304 0 0 Z " fill="#EAEAEB" transform="translate(1369.514892578125,591.8388671875)"/>
<path d="M0 0 C0.71436267 -0.00467997 1.42872535 -0.00935994 2.16473538 -0.01418173 C4.5646873 -0.02617265 6.9640725 -0.01665882 9.36402893 -0.00723267 C11.08210077 -0.0112966 12.80017 -0.01663747 14.51823425 -0.02316284 C19.18972872 -0.03686456 23.86102489 -0.03152578 28.53252292 -0.02202559 C33.41671718 -0.01444253 38.3008942 -0.02147094 43.18508911 -0.02618408 C51.38913528 -0.03164611 59.59310051 -0.02443885 67.7971344 -0.01016235 C77.2862454 0.00615958 86.77516299 0.00088077 96.26426929 -0.01564157 C104.40531841 -0.0292502 112.54630925 -0.03117898 120.68736607 -0.02332556 C125.55226472 -0.01864492 130.41707243 -0.01803483 135.28196526 -0.02793503 C139.85629336 -0.03659316 144.43037189 -0.03060392 149.004673 -0.01325226 C150.68488844 -0.009281 152.36512482 -0.01043236 154.04533195 -0.01704025 C156.33649569 -0.02522095 158.62685638 -0.01497696 160.91796875 0 C162.2008953 0.00113108 163.48382185 0.00226215 164.80562496 0.00342751 C168.23067238 0.40538443 169.65833387 0.90475623 172.0224762 3.38095093 C172.55592346 6.39608765 172.55592346 6.39608765 172.58888245 10.06063843 C172.59508102 10.71041656 172.6012796 11.3601947 172.60766602 12.02966309 C172.61476189 13.40309147 172.61159388 14.77660591 172.59889221 16.1499939 C172.58506223 18.24293173 172.61903848 20.33136241 172.65724182 22.42391968 C172.65819349 23.76116035 172.65633164 25.09840658 172.65138245 26.43563843 C172.65247009 28.25297485 172.65247009 28.25297485 172.65357971 30.10702515 C171.83164215 34.37092562 170.36485085 35.66422035 167.0224762 38.38095093 C163.91558838 39.02018738 163.91558838 39.02018738 160.39625549 39.04037476 C159.7517897 39.05085846 159.10732391 39.06134216 158.44332886 39.07214355 C156.3272883 39.10079233 154.21289387 39.09461533 152.09669495 39.08798218 C150.62408406 39.10110364 149.15149116 39.11640926 147.67892456 39.13380432 C143.81387314 39.17361595 139.94929293 39.18384217 136.08406067 39.18783569 C132.13565308 39.19717455 128.18752152 39.23459267 124.23927307 39.2696228 C116.50033838 39.3341593 108.76168604 39.36743145 101.0224762 39.38095093 C101.02193143 40.22670779 101.02138666 41.07246466 101.02082539 41.94385052 C101.00586246 62.51663823 100.96343544 83.08920912 100.89038563 103.66187572 C100.8557226 113.61065819 100.83037838 123.55930191 100.82691956 133.50814819 C100.82388149 142.17890323 100.80341223 150.84941125 100.76195163 159.52007085 C100.74060559 164.11180544 100.7280292 168.70318871 100.7363224 173.29497337 C100.74385247 177.61665471 100.72808284 181.93762362 100.69441605 186.25917435 C100.68617009 187.84542173 100.68644782 189.43173979 100.69587898 191.01798058 C100.7074864 193.18470803 100.68841087 195.34909483 100.66171265 197.51564026 C100.65894727 198.72779803 100.65618189 199.93995581 100.65333271 201.18884563 C99.83939743 205.30732117 98.26919045 206.80189895 95.0224762 209.38095093 C91.85621643 210.02792358 91.85621643 210.02792358 88.33106995 210.04501343 C87.05683167 210.05145874 85.78259338 210.05790405 84.46974182 210.06454468 C83.48227966 210.04883423 83.48227966 210.04883423 82.47486877 210.0328064 C80.46083771 210.00596241 78.45235324 210.03260592 76.43849182 210.06454468 C75.1655426 210.05809937 73.89259338 210.05165405 72.58106995 210.04501343 C71.41889954 210.03937378 70.25672913 210.03373413 69.05934143 210.02792358 C66.0224762 209.38095093 66.0224762 209.38095093 63.86273575 207.2719698 C61.60169158 203.7199049 61.52878894 201.66801026 61.54145813 197.47767639 C61.53804043 196.79553458 61.53462273 196.11339276 61.53110147 195.41057998 C61.52452834 193.13163597 61.54648728 190.85387765 61.56837463 188.57504272 C61.56950324 186.93885832 61.56886899 185.30267188 61.56660461 183.66648865 C61.56545706 179.22873204 61.58897298 174.79140799 61.61690044 170.3537519 C61.64190721 165.71463194 61.64425553 161.07550203 61.64900208 156.43632507 C61.66143398 147.65323607 61.69425851 138.87034624 61.73440003 130.08734494 C61.77911104 120.08744739 61.8011031 110.08754032 61.82118177 100.08756769 C61.86299094 79.51858427 61.9333472 58.94978015 62.0224762 38.38095093 C61.17944946 38.38983337 60.33642273 38.39871582 59.46784973 38.40786743 C51.52243427 38.48802143 43.57715462 38.54891933 35.63142776 38.58819962 C31.5464325 38.60907304 27.46177135 38.63738556 23.37696838 38.68270874 C19.43473274 38.72617623 15.49281842 38.75008988 11.55036163 38.7604599 C10.04642935 38.76784974 8.54251463 38.7822806 7.03871918 38.80387115 C4.9316816 38.83291905 2.82597091 38.83690664 0.71876526 38.83505249 C-0.48036499 38.84393494 -1.67949524 38.85281738 -2.91496277 38.86196899 C-6.60378996 38.28258706 -7.7760508 37.3495935 -9.9775238 34.38095093 C-10.47923279 31.12875366 -10.47923279 31.12875366 -10.47361755 27.31454468 C-10.47507278 26.6392421 -10.47652802 25.96393951 -10.47802734 25.26817322 C-10.47637201 23.84519115 -10.46485133 22.4221905 -10.44407654 20.99935913 C-10.41506772 18.8217475 -10.42348264 16.64656416 -10.43650818 14.46884155 C-10.43027175 13.08406411 -10.42188154 11.69929433 -10.41111755 10.31454468 C-10.40136902 9.05698364 -10.39162048 7.79942261 -10.38157654 6.50375366 C-9.9775238 3.38095093 -9.9775238 3.38095093 -8.88836575 1.70958519 C-5.97633507 -0.31518915 -3.51772575 0.00310227 0 0 Z " fill="#024BAD" transform="translate(1080.977523803711,553.6190490722656)"/>
<path d="M0 0 C0.71436267 -0.00467997 1.42872535 -0.00935994 2.16473538 -0.01418173 C4.5646873 -0.02617265 6.9640725 -0.01665882 9.36402893 -0.00723267 C11.08210077 -0.0112966 12.80017 -0.01663747 14.51823425 -0.02316284 C19.18972872 -0.03686456 23.86102489 -0.03152578 28.53252292 -0.02202559 C33.41671718 -0.01444253 38.3008942 -0.02147094 43.18508911 -0.02618408 C51.38913528 -0.03164611 59.59310051 -0.02443885 67.7971344 -0.01016235 C77.2862454 0.00615958 86.77516299 0.00088077 96.26426929 -0.01564157 C104.40531841 -0.0292502 112.54630925 -0.03117898 120.68736607 -0.02332556 C125.55226472 -0.01864492 130.41707243 -0.01803483 135.28196526 -0.02793503 C139.85629336 -0.03659316 144.43037189 -0.03060392 149.004673 -0.01325226 C150.68488844 -0.009281 152.36512482 -0.01043236 154.04533195 -0.01704025 C156.33649569 -0.02522095 158.62685638 -0.01497696 160.91796875 0 C162.2008953 0.00113108 163.48382185 0.00226215 164.80562496 0.00342751 C168.23067238 0.40538443 169.65833387 0.90475623 172.0224762 3.38095093 C172.55592346 6.39608765 172.55592346 6.39608765 172.58888245 10.06063843 C172.59508102 10.71041656 172.6012796 11.3601947 172.60766602 12.02966309 C172.61476189 13.40309147 172.61159388 14.77660591 172.59889221 16.1499939 C172.58506223 18.24293173 172.61903848 20.33136241 172.65724182 22.42391968 C172.65819349 23.76116035 172.65633164 25.09840658 172.65138245 26.43563843 C172.65247009 28.25297485 172.65247009 28.25297485 172.65357971 30.10702515 C171.83164215 34.37092562 170.36485085 35.66422035 167.0224762 38.38095093 C163.91558838 39.02018738 163.91558838 39.02018738 160.39625549 39.04037476 C159.7517897 39.05085846 159.10732391 39.06134216 158.44332886 39.07214355 C156.3272883 39.10079233 154.21289387 39.09461533 152.09669495 39.08798218 C150.62408406 39.10110364 149.15149116 39.11640926 147.67892456 39.13380432 C143.81387314 39.17361595 139.94929293 39.18384217 136.08406067 39.18783569 C132.13565308 39.19717455 128.18752152 39.23459267 124.23927307 39.2696228 C116.50033838 39.3341593 108.76168604 39.36743145 101.0224762 39.38095093 C101.02193143 40.22670779 101.02138666 41.07246466 101.02082539 41.94385052 C101.00586246 62.51663823 100.96343544 83.08920912 100.89038563 103.66187572 C100.8557226 113.61065819 100.83037838 123.55930191 100.82691956 133.50814819 C100.82388149 142.17890323 100.80341223 150.84941125 100.76195163 159.52007085 C100.74060559 164.11180544 100.7280292 168.70318871 100.7363224 173.29497337 C100.74385247 177.61665471 100.72808284 181.93762362 100.69441605 186.25917435 C100.68617009 187.84542173 100.68644782 189.43173979 100.69587898 191.01798058 C100.7074864 193.18470803 100.68841087 195.34909483 100.66171265 197.51564026 C100.65894727 198.72779803 100.65618189 199.93995581 100.65333271 201.18884563 C99.83939743 205.30732117 98.26919045 206.80189895 95.0224762 209.38095093 C91.85621643 210.02792358 91.85621643 210.02792358 88.33106995 210.04501343 C87.05683167 210.05145874 85.78259338 210.05790405 84.46974182 210.06454468 C83.48227966 210.04883423 83.48227966 210.04883423 82.47486877 210.0328064 C80.46083771 210.00596241 78.45235324 210.03260592 76.43849182 210.06454468 C75.1655426 210.05809937 73.89259338 210.05165405 72.58106995 210.04501343 C71.41889954 210.03937378 70.25672913 210.03373413 69.05934143 210.02792358 C66.0224762 209.38095093 66.0224762 209.38095093 63.86273575 207.2719698 C61.60169158 203.7199049 61.52878894 201.66801026 61.54145813 197.47767639 C61.53804043 196.79553458 61.53462273 196.11339276 61.53110147 195.41057998 C61.52452834 193.13163597 61.54648728 190.85387765 61.56837463 188.57504272 C61.56950324 186.93885832 61.56886899 185.30267188 61.56660461 183.66648865 C61.56545706 179.22873204 61.58897298 174.79140799 61.61690044 170.3537519 C61.64190721 165.71463194 61.64425553 161.07550203 61.64900208 156.43632507 C61.66143398 147.65323607 61.69425851 138.87034624 61.73440003 130.08734494 C61.77911104 120.08744739 61.8011031 110.08754032 61.82118177 100.08756769 C61.86299094 79.51858427 61.9333472 58.94978015 62.0224762 38.38095093 C61.17944946 38.38983337 60.33642273 38.39871582 59.46784973 38.40786743 C51.52243427 38.48802143 43.57715462 38.54891933 35.63142776 38.58819962 C31.5464325 38.60907304 27.46177135 38.63738556 23.37696838 38.68270874 C19.43473274 38.72617623 15.49281842 38.75008988 11.55036163 38.7604599 C10.04642935 38.76784974 8.54251463 38.7822806 7.03871918 38.80387115 C4.9316816 38.83291905 2.82597091 38.83690664 0.71876526 38.83505249 C-0.48036499 38.84393494 -1.67949524 38.85281738 -2.91496277 38.86196899 C-6.60378996 38.28258706 -7.7760508 37.3495935 -9.9775238 34.38095093 C-10.47923279 31.12875366 -10.47923279 31.12875366 -10.47361755 27.31454468 C-10.47507278 26.6392421 -10.47652802 25.96393951 -10.47802734 25.26817322 C-10.47637201 23.84519115 -10.46485133 22.4221905 -10.44407654 20.99935913 C-10.41506772 18.8217475 -10.42348264 16.64656416 -10.43650818 14.46884155 C-10.43027175 13.08406411 -10.42188154 11.69929433 -10.41111755 10.31454468 C-10.40136902 9.05698364 -10.39162048 7.79942261 -10.38157654 6.50375366 C-9.9775238 3.38095093 -9.9775238 3.38095093 -8.88836575 1.70958519 C-5.97633507 -0.31518915 -3.51772575 0.00310227 0 0 Z " fill="#024BAD" transform="translate(346.97752380371094,553.6190490722656)"/>
<path d="M0 0 C2.05078125 0.03255208 4.1015625 0.06510417 6.15234375 0.09765625 C12.22387028 12.04316782 17.96972082 24.12145149 23.58984375 36.28515625 C24.00521393 37.18209198 24.42058411 38.07902771 24.84854126 39.00314331 C30.83834026 51.94309021 36.71259491 64.91484148 42.15234375 78.09765625 C39.18234375 78.09765625 36.21234375 78.09765625 33.15234375 78.09765625 C32.02316342 75.72456603 30.8989231 73.34933631 29.77734375 70.97265625 C29.46023438 70.3075 29.143125 69.64234375 28.81640625 68.95703125 C28.50703125 68.29960938 28.19765625 67.6421875 27.87890625 66.96484375 C27.45472412 66.06934814 27.45472412 66.06934814 27.02197266 65.15576172 C25.912202 62.52932527 25.05399553 59.80261159 24.15234375 57.09765625 C9.63234375 57.09765625 -4.88765625 57.09765625 -19.84765625 57.09765625 C-20.50765625 59.07765625 -21.16765625 61.05765625 -21.84765625 63.09765625 C-22.39711847 64.39803989 -22.96988782 65.68903401 -23.57421875 66.96484375 C-24.03828125 67.95097656 -24.03828125 67.95097656 -24.51171875 68.95703125 C-24.82882812 69.6221875 -25.1459375 70.28734375 -25.47265625 70.97265625 C-25.7975 71.66101563 -26.12234375 72.349375 -26.45703125 73.05859375 C-27.25089097 74.73970844 -28.04885183 76.41888546 -28.84765625 78.09765625 C-31.81765625 78.09765625 -34.78765625 78.09765625 -37.84765625 78.09765625 C-31.01317163 62.51772915 -23.91117659 47.05984131 -16.82270813 31.59440613 C-14.67643259 26.91077712 -12.53699068 22.22409488 -10.40234375 17.53515625 C-9.8916333 16.41512207 -9.38092285 15.29508789 -8.85473633 14.14111328 C-7.91280616 12.07513902 -6.97246227 10.00844057 -6.03393555 7.94091797 C-5.62312744 7.04131348 -5.21231934 6.14170898 -4.7890625 5.21484375 C-4.43529541 4.43737793 -4.08152832 3.65991211 -3.71704102 2.85888672 C-2.36759804 0.12513732 -2.36759804 0.12513732 0 0 Z " fill="#0950AF" transform="translate(877.84765625,842.90234375)"/>
<path d="M0 0 C1.23556641 0.01740234 1.23556641 0.01740234 2.49609375 0.03515625 C3.32238281 0.04417969 4.14867187 0.05320312 5 0.0625 C5.63808594 0.07410156 6.27617188 0.08570313 6.93359375 0.09765625 C15.47628963 18.55890427 24.01721561 37.02133291 32.4604187 55.52835083 C33.10529851 56.94100344 33.75122108 58.35318053 34.39822388 59.76486206 C35.29845245 61.72989979 36.19469105 63.69670834 37.08984375 65.6640625 C37.59322266 66.76693604 38.09660156 67.86980957 38.61523438 69.00610352 C39.89130267 71.99848366 40.95235366 74.99748529 41.93359375 78.09765625 C38.96359375 78.09765625 35.99359375 78.09765625 32.93359375 78.09765625 C29.96359375 71.49765625 26.99359375 64.89765625 23.93359375 58.09765625 C2.15359375 57.60265625 2.15359375 57.60265625 -20.06640625 57.09765625 C-21.05640625 60.06765625 -22.04640625 63.03765625 -23.06640625 66.09765625 C-24.07940779 68.30851363 -25.13664275 70.50011348 -26.25390625 72.66015625 C-26.78371094 73.69269531 -27.31351563 74.72523438 -27.859375 75.7890625 C-28.25769531 76.55089844 -28.65601563 77.31273437 -29.06640625 78.09765625 C-31.70640625 78.09765625 -34.34640625 78.09765625 -37.06640625 78.09765625 C-35.18741732 72.09106846 -32.97615135 66.39683277 -30.29296875 60.70703125 C-29.93245926 59.93169037 -29.57194977 59.15634949 -29.20051575 58.35751343 C-28.03496186 55.85227058 -26.86313403 53.3500165 -25.69140625 50.84765625 C-24.06759887 47.3619362 -22.44751871 43.87449116 -20.828125 40.38671875 C-20.42451248 39.51832367 -20.02089996 38.64992859 -19.60505676 37.75521851 C-15.2584818 28.38734753 -11.04434335 18.96145783 -6.86376953 9.51855469 C-6.37247559 8.41286133 -5.88118164 7.30716797 -5.375 6.16796875 C-4.95017334 5.20648926 -4.52534668 4.24500977 -4.08764648 3.25439453 C-2.60494608 0.12310709 -2.60494608 0.12310709 0 0 Z " fill="#0950AF" transform="translate(644.06640625,842.90234375)"/>
<path d="M0 0 C9.94869184 6.38217967 16.17070034 14.92921736 18.9375 26.4375 C20.43696377 38.85538932 17.5255676 50.46886217 9.9375 60.4375 C4.25026427 66.63883614 -2.4902768 71.98262464 -11.125 72.6875 C-11.764375 72.605 -12.40375 72.5225 -13.0625 72.4375 C-8.39972628 77.52416224 -3.76201256 81.58126357 3.375 81.9375 C9.4749493 81.66639114 13.97887451 78.74325033 18.9375 75.4375 C20.5 76.6875 20.5 76.6875 21.9375 78.4375 C21.76953125 80.37890625 21.76953125 80.37890625 20.9375 82.4375 C19.1953125 83.88671875 19.1953125 83.88671875 17.0625 85.125 C16.01449219 85.74955078 16.01449219 85.74955078 14.9453125 86.38671875 C8.50009251 89.75980081 0.03098655 89.61115698 -6.85546875 87.63671875 C-11.70620572 85.39257812 -15.10185678 82.50497399 -18.875 78.75 C-23.6848079 74.16635862 -27.34983594 73.5501921 -33.8203125 72.93359375 C-42.90788394 71.54308583 -50.42710937 65.44331517 -56.0625 58.4375 C-63.1117403 48.16934639 -64.03129355 37.55952931 -63.0625 25.4375 C-62.20449043 21.76658405 -60.90505229 18.71632753 -59.0625 15.4375 C-58.62679688 14.64730469 -58.19109375 13.85710938 -57.7421875 13.04296875 C-45.69965287 -6.79760059 -19.51760948 -10.5670493 0 0 Z M-49.5078125 15.265625 C-55.32077767 23.38624972 -55.84737179 31.68916484 -55.0625 41.4375 C-53.07803672 50.3486249 -47.74858614 57.00951844 -40.47265625 62.33203125 C-31.50151223 67.58673426 -21.2837392 68.24783852 -11.2578125 65.734375 C-9.00726381 64.81546584 -7.09578263 63.76535805 -5.0625 62.4375 C-4.36898438 62.025 -3.67546875 61.6125 -2.9609375 61.1875 C3.1047437 57.18914835 7.15589071 51.46919655 9.58203125 44.6171875 C11.35801485 33.72709028 10.54037139 23.55050922 4.3125 14.3125 C-0.2605498 8.51920998 -7.47157951 3.18160752 -14.9519043 2.18603516 C-29.25793385 1.13880935 -40.10528872 3.63926779 -49.5078125 15.265625 Z " fill="#0850AF" transform="translate(1109.0625,847.5625)"/>
<path d="M0 0 C7 0 7 0 8.87353516 1.29077148 C9.34065918 1.89477783 9.8077832 2.49878418 10.2890625 3.12109375 C10.83111328 3.80042969 11.37316406 4.47976563 11.93164062 5.1796875 C12.49044922 5.92476562 13.04925781 6.66984375 13.625 7.4375 C14.22763672 8.20449219 14.83027344 8.97148438 15.45117188 9.76171875 C17.32425104 12.15738113 19.16493946 14.57513383 21 17 C22.10094264 18.43927644 23.20248149 19.87809708 24.3046875 21.31640625 C25.9058375 23.40976794 27.50389619 25.50515491 29.09301758 27.60766602 C33.55675527 33.49621738 38.21800866 39.204368 42.98046875 44.85351562 C47.63111501 50.41092664 51.70137425 56.08938959 56 62 C56.33 41.54 56.66 21.08 57 0 C59.64 0 62.28 0 65 0 C65 25.74 65 51.48 65 78 C58 78 58 78 55.515625 75.8671875 C54.76796875 74.87976563 54.0203125 73.89234375 53.25 72.875 C52.83226318 72.3372998 52.41452637 71.79959961 51.98413086 71.24560547 C51.09423898 70.09704904 50.21349474 68.94135571 49.34130859 67.77929688 C48.01879647 66.02493423 46.6670096 64.2985972 45.30078125 62.578125 C42.51374635 59.0676385 39.75556019 55.53521533 37 52 C35.21054688 49.70659433 33.41895181 47.41488849 31.625 45.125 C31.1815625 44.55861816 30.738125 43.99223633 30.28125 43.40869141 C26.06709435 38.04644848 21.75710523 32.76306714 17.41455078 27.50439453 C16.89747559 26.87388184 16.38040039 26.24336914 15.84765625 25.59375 C15.39398682 25.04396484 14.94031738 24.49417969 14.47290039 23.92773438 C12.52334904 21.37615846 10.78120876 18.67181314 9 16 C8.67 36.46 8.34 56.92 8 78 C5.36 78 2.72 78 0 78 C0 52.26 0 26.52 0 0 Z " fill="#024BAD" transform="translate(933,843)"/>
<path d="M0 0 C7.61649338 6.0093434 11.95592591 13.86777773 15 23 C15.88087924 35.4622752 15.02746972 47.18628009 6.6796875 57.1953125 C-1.04076429 65.49030954 -10.47251586 71.32966942 -22.03125 72.23828125 C-35.20142492 72.52007553 -46.20562772 69.30623987 -55.93359375 60.1875 C-64.84589079 50.68104982 -67.5093353 40.80329831 -67.27734375 28.12109375 C-66.76877195 17.08685693 -61.10178632 8.71949006 -53.3125 1.3125 C-37.98400076 -11.59415543 -16.11917465 -11.1347644 0 0 Z M-53.375 12.58984375 C-59.16213215 21.17316235 -60.22532141 29.52772749 -58.5625 39.66796875 C-56.21472449 49.13243876 -50.42789494 55.55561358 -42.40625 60.80859375 C-34.01762582 64.96205215 -24.19129763 65.32730668 -15.12109375 63.3828125 C-7.35946239 60.63769718 -0.42927587 55.28580101 3.4375 47.9375 C3.9882707 46.63727877 4.51159196 45.324908 5 44 C5.4125 42.9275 5.825 41.855 6.25 40.75 C8.07828898 31.60855511 7.80909779 23.14947112 3 15 C-2.21532422 7.60982066 -8.06320767 2.13844674 -17 0 C-31.47583757 -2.03996475 -43.87116188 0.72984576 -53.375 12.58984375 Z " fill="#0950AF" transform="translate(1295,850)"/>
<path d="M0 0 C2.64 0 5.28 0 8 0 C8 11.55 8 23.1 8 35 C24.17 35 40.34 35 57 35 C57 23.45 57 11.9 57 0 C59.64 0 62.28 0 65 0 C65 25.74 65 51.48 65 78 C62.36 78 59.72 78 57 78 C57 66.12 57 54.24 57 42 C40.83 42 24.66 42 8 42 C8 53.88 8 65.76 8 78 C5.36 78 2.72 78 0 78 C0 52.26 0 26.52 0 0 Z " fill="#024BAD" transform="translate(762,843)"/>
<path d="M0 0 C17.82 0 35.64 0 54 0 C54 2.31 54 4.62 54 7 C38.82 7 23.64 7 8 7 C8 16.24 8 25.48 8 35 C21.53 35 35.06 35 49 35 C49 37.31 49 39.62 49 42 C35.47 42 21.94 42 8 42 C8 51.57 8 61.14 8 71 C23.51 71 39.02 71 55 71 C55 73.31 55 75.62 55 78 C36.85 78 18.7 78 0 78 C0 52.26 0 26.52 0 0 Z " fill="#024BAD" transform="translate(253,843)"/>
<path d="M0 0 C2.64 0 5.28 0 8 0 C8.00586624 0.61672577 8.01173248 1.23345154 8.01777649 1.86886597 C8.08203954 8.32628126 8.16654181 14.78321326 8.26245117 21.24023438 C8.29556964 23.64544272 8.32364167 26.05072634 8.34643555 28.45605469 C8.38022241 31.92675659 8.43255095 35.39677673 8.48828125 38.8671875 C8.49467117 39.93113739 8.5010611 40.99508728 8.50764465 42.09127808 C8.65902409 49.89423139 9.68746651 57.06012812 13.6875 63.875 C20.00950157 69.68440685 25.80105704 70.58671839 34.12915039 70.47021484 C40.55115118 70.18801201 45.0793278 69.11689307 49.51171875 64.38671875 C55.13775008 57.11640319 55.32306622 49.70899127 55.4140625 40.8203125 C55.43342865 39.6524118 55.4527948 38.48451111 55.4727478 37.28121948 C55.53237661 33.56255322 55.57886274 29.84385572 55.625 26.125 C55.66319509 23.59894507 55.70224771 21.07290295 55.7421875 18.546875 C55.83806453 12.36469731 55.92316085 6.18244204 56 0 C58.64 0 61.28 0 64 0 C64.07644863 7.36484074 64.12876661 14.72957805 64.16479492 22.09472656 C64.17982434 24.59704411 64.2002535 27.09933557 64.22631836 29.6015625 C64.26295878 33.21100325 64.27978546 36.82009383 64.29296875 40.4296875 C64.30845261 41.53738495 64.32393646 42.6450824 64.33988953 43.78634644 C64.3421554 54.38952203 62.44047685 63.13836409 55 71 C47.56534515 77.99732221 38.18010933 79.62435015 28.2421875 79.34375 C19.28222213 78.39377777 11.9011317 74.86372765 6 68 C4.30704309 65.43276981 3.04247013 62.89001621 2 60 C1.65775391 59.05310303 1.31550781 58.10620605 0.96289062 57.13061523 C-0.55037487 51.75272918 -0.24624301 46.26431848 -0.1953125 40.72265625 C-0.1924826 39.5561705 -0.18965271 38.38968475 -0.18673706 37.18785095 C-0.17558388 33.47929424 -0.15048786 29.77098315 -0.125 26.0625 C-0.11496393 23.54101912 -0.10583918 21.01953445 -0.09765625 18.49804688 C-0.07566044 12.3319481 -0.04223118 6.16599161 0 0 Z " fill="#044DAE" transform="translate(1146,843)"/>
<path d="M0 0 C2.64 0 5.28 0 8 0 C8.00364563 0.62703323 8.00729126 1.25406647 8.01104736 1.90010071 C8.05310484 8.47128357 8.12261121 15.04178302 8.20751953 21.61254883 C8.23561293 24.05941914 8.25688483 26.50637825 8.27099609 28.95336914 C8.29258662 32.48629842 8.33932114 36.01817307 8.390625 39.55078125 C8.39185364 40.63144363 8.39308228 41.71210602 8.39434814 42.82551575 C8.53811745 50.41000761 9.46302685 58.58600028 14.3760376 64.71723938 C20.69631459 70.38944285 28.22346075 70.50176781 36.2890625 70.375 C42.16034302 69.78169165 46.55705805 67.95539817 50.359375 63.35546875 C55.12253804 55.71024691 55.32082578 47.87291229 55.4140625 39.16015625 C55.43342865 38.03806259 55.4527948 36.91596893 55.4727478 35.75987244 C55.53228016 32.1941577 55.57882378 28.62841022 55.625 25.0625 C55.66320399 22.63735612 55.70225712 20.21222545 55.7421875 17.78710938 C55.83796001 11.8581907 55.92308397 5.92919168 56 0 C58.64 0 61.28 0 64 0 C64.12778838 7.30978521 64.2147623 14.61927769 64.2746582 21.92993164 C64.29965277 24.41181197 64.33366 26.89361983 64.37719727 29.37524414 C64.86794043 58.08660605 64.86794043 58.08660605 56.75 69.5 C48.53474 76.96841818 39.3126873 79.52260699 28.34765625 79.30859375 C19.42474654 78.48606182 11.77162436 74.9364193 6 68 C2.39401595 62.08294886 -0.12950161 56.59220338 -0.11352539 49.6105957 C-0.11344986 48.50968094 -0.11337433 47.40876617 -0.11329651 46.27449036 C-0.10813522 45.08691635 -0.10297394 43.89934235 -0.09765625 42.67578125 C-0.0962413 41.45924362 -0.09482635 40.24270599 -0.09336853 38.98930359 C-0.08776312 35.0970109 -0.07520967 31.20477536 -0.0625 27.3125 C-0.0574857 24.67643312 -0.05292267 22.04036534 -0.04882812 19.40429688 C-0.03779193 12.93617836 -0.0210485 6.46809326 0 0 Z " fill="#074FAF" transform="translate(437,843)"/>
<path d="M0 0 C3.47366508 -0.55559377 6.53947123 -0.70614005 10 0 C13.08097058 2.46013329 15.01217921 5.51283636 17.125 8.8125 C17.71829102 9.67657471 18.31158203 10.54064941 18.92285156 11.4309082 C20.10107862 13.14950456 21.26618649 14.87718018 22.41699219 16.61425781 C24.45922864 19.6921009 26.58823581 22.69247397 28.75 25.6875 C29.63945312 26.96173828 29.63945312 26.96173828 30.546875 28.26171875 C31.02640625 28.83535156 31.5059375 29.40898438 32 30 C32.66 30 33.32 30 34 30 C35.54333394 28.03240294 36.96519174 26.06076355 38.375 24 C39.27671113 22.72611447 40.17908303 21.45269646 41.08203125 20.1796875 C43.09722417 17.31372645 45.06096442 14.41790265 47.01171875 11.5078125 C48.02768802 10.04620875 49.04459575 8.58525683 50.0625 7.125 C50.51995605 6.41730469 50.97741211 5.70960938 51.44873047 4.98046875 C54.82707361 0.21659221 54.82707361 0.21659221 58.37451172 -0.43847656 C60.62984861 -0.44465194 62.76882024 -0.31754618 65 0 C60.85979971 6.33825992 56.51424539 12.4860103 52 18.5625 C51.40960938 19.36107422 50.81921875 20.15964844 50.2109375 20.98242188 C49.62570313 21.77326172 49.04046875 22.56410156 48.4375 23.37890625 C47.86902344 24.15121582 47.30054688 24.92352539 46.71484375 25.71923828 C45.56826469 27.24420149 44.39321865 28.74815616 43.19140625 30.22998047 C42.63324219 30.92623535 42.07507813 31.62249023 41.5 32.33984375 C40.74203125 33.25624634 40.74203125 33.25624634 39.96875 34.19116211 C38.8132577 35.95197562 38.8132577 35.95197562 39.17480469 37.98413086 C40.10314565 40.25197446 41.22625627 41.95747396 42.703125 43.9140625 C43.26563965 44.66703613 43.8281543 45.42000977 44.40771484 46.19580078 C45.319646 47.39825439 45.319646 47.39825439 46.25 48.625 C47.51897602 50.32235856 48.78718528 52.0202906 50.0546875 53.71875 C50.7053418 54.58757813 51.35599609 55.45640625 52.02636719 56.3515625 C55.17945629 60.58272413 58.28137761 64.85025511 61.375 69.125 C61.93993164 69.90053223 62.50486328 70.67606445 63.08691406 71.47509766 C63.6022168 72.18714355 64.11751953 72.89918945 64.6484375 73.6328125 C65.10395996 74.26074707 65.55948242 74.88868164 66.02880859 75.53564453 C67 77 67 77 67 78 C63.54787156 78.49893204 60.43974403 78.64986433 57 78 C54.13736545 75.78282477 52.44883293 72.99696852 50.5625 69.9375 C49.46716971 68.29228663 48.37079622 66.64776735 47.2734375 65.00390625 C46.73299805 64.17004395 46.19255859 63.33618164 45.63574219 62.47705078 C43.12411522 58.67362284 40.41008066 55.02881328 37.6875 51.375 C36.77394786 50.13339465 35.8611057 48.89126635 34.94921875 47.6484375 C34.30597656 46.77445313 33.66273438 45.90046875 33 45 C28.72945517 48.98167799 25.49261426 53.32623859 22.1875 58.125 C21.65979004 58.87257568 21.13208008 59.62015137 20.58837891 60.39038086 C18.23380835 63.73039344 15.92465852 67.07137821 13.79296875 70.55859375 C9.23482367 77.69752158 9.23482367 77.69752158 5.2890625 78.6640625 C2.75342998 78.68537034 0.48102024 78.50332173 -2 78 C1.65176034 72.23406262 5.63948723 66.75497262 9.75 61.3125 C11.3140974 59.23227748 12.87754605 57.15156857 14.44091797 55.07080078 C15.47107039 53.70253382 16.50390291 52.33628012 17.53955078 50.97216797 C18.97637559 49.07375791 20.3961465 47.16370874 21.8125 45.25 C22.25110352 44.67805908 22.68970703 44.10611816 23.14160156 43.5168457 C25.41839891 40.59672934 25.41839891 40.59672934 25.77758789 37.07055664 C24.88747244 34.70036224 23.74885967 33.0038814 22.2265625 30.98046875 C21.65373535 30.21202637 21.0809082 29.44358398 20.49072266 28.65185547 C19.87503418 27.83861816 19.2593457 27.02538086 18.625 26.1875 C17.35403415 24.48577605 16.08320265 22.78395174 14.8125 21.08203125 C14.17441406 20.23205566 13.53632813 19.38208008 12.87890625 18.50634766 C10.10806665 14.81021468 7.36314962 11.09538174 4.625 7.375 C4.15529785 6.74231201 3.6855957 6.10962402 3.20166016 5.45776367 C0 1.11421448 0 1.11421448 0 0 Z " fill="#074FAF" transform="translate(171,843)"/>
<path d="M0 0 C1.89453125 1.47265625 1.89453125 1.47265625 3.1875 2.9375 C3.1875 5.9375 3.1875 5.9375 1.9375 7.6875 C0.1875 8.9375 0.1875 8.9375 -1.625 8.875 C-4.61091503 7.59532213 -7.12134566 5.74991006 -9.8125 3.9375 C-17.14576231 0.19845782 -28.83407831 0.77166713 -36.75 2.875 C-44.7039848 6.14015718 -51.37513447 13.16606488 -54.8125 20.9375 C-57.35655541 31.16672278 -56.9241839 41.14454257 -51.64453125 50.34375 C-48.83526141 54.32105315 -45.86018864 57.24154412 -41.8125 59.9375 C-41.16925781 60.36933594 -40.52601562 60.80117188 -39.86328125 61.24609375 C-32.21034197 65.45885461 -22.04861022 65.23988274 -13.734375 63.171875 C-9.12040732 61.43127641 -5.53952094 59.19864333 -1.8125 55.9375 C0.1875 55.9375 0.1875 55.9375 2.3125 57.9375 C2.93125 58.5975 3.55 59.2575 4.1875 59.9375 C1.75355291 66.06205165 -4.45684592 68.46254747 -10.203125 70.98828125 C-21.30722107 74.86736117 -33.26795475 73.9954526 -43.8125 68.9375 C-53.94983747 63.10248082 -60.6812275 55.51720548 -64.21484375 44.34399414 C-65.18710214 40.42914491 -65.34556901 36.64536433 -65.3125 32.625 C-65.30605469 31.79758301 -65.29960938 30.97016602 -65.29296875 30.11767578 C-64.98132381 19.60170933 -61.36854983 11.4827987 -54.0390625 3.90625 C-39.21208345 -9.20392095 -16.52816316 -11.6686504 0 0 Z " fill="#0A51B0" transform="translate(1386.8125,849.0625)"/>
<path d="M0 0 C2.72963183 1.91974106 3.98036261 3.15804391 5.875 6 C4.555 7.32 3.235 8.64 1.875 10 C-0.62397512 9.06670039 -2.90756879 8.13719369 -5.16796875 6.7109375 C-13.10761367 1.76492919 -22.07110353 1.6075689 -31.125 3 C-41.03879583 5.97305764 -47.68370607 12.08146758 -52.5625 21.0625 C-55.70095 28.91541819 -55.37972661 38.53463055 -52.5625 46.4375 C-48.61564012 54.74522603 -42.63891698 60.49515432 -34.125 64 C-25.43421126 66.28242937 -14.96604007 66.40782839 -6.93359375 62.15625 C-4.504147 60.60308318 -2.26470835 58.9326398 -0.125 57 C3.35399158 58.39159663 4.35552501 59.63251488 5.875 63 C-5.07355192 71.94976996 -15.00476689 74.89076237 -29.125 74 C-39.65912284 72.21404239 -49.4641395 66.34306761 -56.125 58 C-63.01217936 47.68754792 -64.31380042 37.11090428 -63.125 25 C-62.28151045 21.30494065 -60.99059814 18.28672776 -59.125 15 C-58.72410156 14.23429688 -58.32320313 13.46859375 -57.91015625 12.6796875 C-52.45885181 3.35716687 -43.4663963 -2.40221038 -33.2265625 -5.37890625 C-21.90423984 -7.64622275 -9.80888476 -6.29899629 0 0 Z " fill="#0950B0" transform="translate(413.125,848)"/>
<path d="M0 0 C20.79 0 41.58 0 63 0 C63 2.31 63 4.62 63 7 C53.76 7 44.52 7 35 7 C35 30.43 35 53.86 35 78 C32.36 78 29.72 78 27 78 C27 54.57 27 31.14 27 7 C18.09 7 9.18 7 0 7 C0 4.69 0 2.38 0 0 Z " fill="#004AAD" transform="translate(543,843)"/>
<path d="M0 0 C0.66 0 1.32 0 2 0 C4.42571715 5.51554647 6.84667244 11.03314828 9.26318359 16.55273438 C10.08641168 18.43124141 10.91095214 20.30917387 11.73681641 22.18652344 C12.92172905 24.88067054 14.10195028 27.57682963 15.28125 30.2734375 C15.65310425 31.11619232 16.0249585 31.95894714 16.40808105 32.82723999 C16.74843384 33.60789825 17.08878662 34.38855652 17.43945312 35.19287109 C17.7414563 35.88126068 18.04345947 36.56965027 18.35461426 37.27890015 C19 39 19 39 19 41 C7.12 41 -4.76 41 -17 41 C-16.30224904 37.51124521 -15.80483254 35.21864258 -14.41772461 32.12768555 C-14.09746811 31.40731613 -13.77721161 30.68694672 -13.44725037 29.94474792 C-13.10243118 29.1830983 -12.757612 28.42144867 -12.40234375 27.63671875 C-12.04862198 26.84473587 -11.69490021 26.05275299 -11.33045959 25.23677063 C-10.20426292 22.71816953 -9.07099444 20.20282393 -7.9375 17.6875 C-7.1707546 15.97612167 -6.40447326 14.26453534 -5.63867188 12.55273438 C-3.76448267 8.3660607 -1.88394649 4.18229155 0 0 Z " fill="#FAFBFD" transform="translate(879,852)"/>
<path d="M0 0 C2.97831731 3.53992008 4.73450576 7.52297834 6.57421875 11.72265625 C6.90291458 12.46454697 7.23161041 13.20643768 7.57026672 13.97080994 C8.26106964 15.5338565 8.94926653 17.09805711 9.63500977 18.66333008 C10.68686618 21.06105519 11.75008347 23.45351085 12.81445312 25.84570312 C13.48506347 27.36688418 14.15500845 28.88835876 14.82421875 30.41015625 C15.14291428 31.12583267 15.4616098 31.84150909 15.78996277 32.57887268 C17.08439303 35.5521577 18 37.72066569 18 41 C6.12 41 -5.76 41 -18 41 C-16.08153016 35.24459049 -14.18282256 29.84492726 -11.6796875 24.375 C-11.37555939 23.70202881 -11.07143127 23.02905762 -10.75808716 22.33569336 C-10.12322193 20.93328867 -9.48623506 19.53184258 -8.84716797 18.13134766 C-7.86552497 15.97922727 -6.89127193 13.82387188 -5.91796875 11.66796875 C-5.2972998 10.29928645 -4.67622129 8.93078979 -4.0546875 7.5625 C-3.76302704 6.91780762 -3.47136658 6.27311523 -3.17086792 5.60888672 C-1.11607236 1.11607236 -1.11607236 1.11607236 0 0 Z " fill="#FAFCFD" transform="translate(646,852)"/>
<path d="M0 0 C2.64 0 5.28 0 8 0 C8 25.74 8 51.48 8 78 C5.36 78 2.72 78 0 78 C0 52.26 0 26.52 0 0 Z " fill="#004AAD" transform="translate(699,843)"/>
<path d="M0 0 C3.1875 1.875 3.1875 1.875 6 4 C9.4352048 6.29013653 10.985331 6.17842973 15 6 C15.66 4.35 16.32 2.7 17 1 C18.65 1 20.3 1 22 1 C21.82132624 5.55618095 21.43997667 7.51909527 18.3125 10.9375 C15 13 15 13 12.1875 13.75 C7.91451278 12.74459124 5.47497815 10.43206593 2.24609375 7.53125 C-0.40198891 5.72594843 -1.8610097 5.69106598 -5 6 C-5.99 7.98 -6.98 9.96 -8 12 C-9.32 12 -10.64 12 -12 12 C-12.35671933 8.16526716 -12.29771416 6.44657125 -10.125 3.1875 C-6.81256608 -0.22235845 -4.69782713 -0.45171415 0 0 Z " fill="#0C52B0" transform="translate(464,823)"/>
<path d="M0 0 C4.31943284 2.66052023 8.22166762 5.61804089 12 9 C12 9.33 12 9.66 12 10 C6.84603963 10.46017503 4.09830661 10.38730979 -0.1875 7.375 C-2.11529529 5.99092481 -2.11529529 5.99092481 -4 5 C-7.12293638 5.58101142 -8.73360156 6.81280109 -11.3125 8.625 C-15.05934171 10.54198878 -17.82231521 10.21242465 -22 10 C-16.48142941 3.76161586 -8.72214979 -2.82509883 0 0 Z " fill="#0B52B0" transform="translate(1274,826)"/>
<path d="M0 0 C3.58910614 -0.87499653 6.40882131 -0.92162993 10 0 C14.91453159 3.26309536 19.03544829 7.66882047 23 12 C23 12.33 23 12.66 23 13 C17.94948891 13.53548946 15.07856043 13.48252325 10.9375 10.41015625 C9.60845768 9.31402531 8.29602014 8.19748384 7 7.0625 C6.32066406 6.49853516 5.64132812 5.93457031 4.94140625 5.35351562 C1.53401058 2.49116614 1.53401058 2.49116614 0 1 C0 0.67 0 0.34 0 0 Z " fill="#0850AF" transform="translate(863,823)"/>
<path d="M0 0 C-4.63628455 4.82086731 -10.57862799 10.99721459 -17.2734375 12.515625 C-19.1875 12.5 -19.1875 12.5 -22 12 C-15.82757818 3.51291999 -10.84291256 -1.39980224 0 0 Z " fill="#0950B0" transform="translate(1302,815)"/>
<path d="M0 0 C3.0625 0.1875 3.0625 0.1875 5.0625 2.1875 C5.3125 4.6875 5.3125 4.6875 5.0625 7.1875 C3.0625 9.1875 3.0625 9.1875 0.5625 9.4375 C-1.9375 9.1875 -1.9375 9.1875 -3.9375 7.1875 C-4.125 4.125 -4.125 4.125 -3.9375 1.1875 C-2.9375 0.1875 -2.9375 0.1875 0 0 Z " fill="#084FAF" transform="translate(645.9375,932.8125)"/>
</svg>
